<svg width="131" height="21" viewBox="0 0 131 21" fill="none" xmlns="http://www.w3.org/2000/svg">
<path d="M127.705 4.21944C127.116 4.21944 126.617 4.01528 126.208 3.60694C125.8 3.19861 125.596 2.69889 125.596 2.10972C125.596 1.52056 125.8 1.00139 126.208 0.600833C126.617 0.200278 127.116 0 127.705 0C128.295 0 128.814 0.200278 129.214 0.600833C129.615 1.00139 129.815 1.505 129.815 2.10972C129.815 2.71444 129.615 3.19861 129.214 3.60694C128.814 4.01528 128.31 4.21944 127.705 4.21944ZM125.732 19.8042V6.19306H129.679V19.8042H125.732Z" fill="black"/>
<path d="M124.107 6.23584L118.577 19.8042H114.961L109.431 6.23584H113.65L116.796 15.0617L119.966 6.23584H124.107Z" fill="black"/>
<path d="M100.607 20.177C99.3512 20.177 98.2098 19.8522 97.1812 19.2008C96.1526 18.5514 95.332 17.6842 94.7195 16.6031C94.107 15.522 93.8018 14.3242 93.8018 13.0078C93.8018 11.6914 94.109 10.4897 94.7195 9.40084C95.332 8.31196 96.1526 7.44668 97.1812 6.80307C98.2098 6.15946 99.3512 5.83862 100.607 5.83862C101.484 5.83862 102.285 5.99418 103.013 6.30334C103.738 6.61446 104.358 7.04029 104.873 7.58473V6.20029H108.276V19.8114H104.873V18.427C104.358 18.9714 103.74 19.3992 103.013 19.7083C102.287 20.0175 101.484 20.1731 100.607 20.1731V20.177ZM101.084 16.7081C101.749 16.7081 102.353 16.5408 102.898 16.2083C103.442 15.8758 103.878 15.4286 104.203 14.8706C104.527 14.3106 104.691 13.6903 104.691 13.0097C104.691 12.3292 104.527 11.7089 104.203 11.1489C103.878 10.5889 103.442 10.1436 102.898 9.81112C102.353 9.47862 101.749 9.3114 101.084 9.3114C100.419 9.3114 99.814 9.47862 99.2695 9.81112C98.7251 10.1436 98.2895 10.5908 97.9648 11.1489C97.6401 11.7089 97.4768 12.3292 97.4768 13.0097C97.4768 13.6903 97.6382 14.3106 97.9648 14.8706C98.2895 15.4306 98.7251 15.8758 99.2695 16.2083C99.814 16.5408 100.419 16.7081 101.084 16.7081Z" fill="black"/>
<path d="M92.6685 19.8035H89.5399L81.4413 9.17324V19.8035H77.8091V3.0813H81.2021L89.0382 13.3771V3.0813H92.6685V19.8035Z" fill="black"/>
<path d="M74.7801 10.5559H66.7087V14.3826H74.7801V10.5559Z" fill="black"/>
<path d="M16.5369 14.6063C16.1055 15.615 15.5095 16.4998 14.747 17.2623C13.9845 18.0247 13.0759 18.6242 12.0214 19.0641C10.9668 19.5022 9.81539 19.723 8.56891 19.723C7.32242 19.723 6.17444 19.5039 5.12834 19.0641C4.08055 18.6259 3.17711 18.0332 2.41461 17.286C1.65212 16.5388 1.05945 15.6608 0.636593 14.6538C0.212042 13.6451 0.00146484 12.5633 0.00146484 11.4085V11.3627C0.00146484 10.2079 0.217136 9.12616 0.64848 8.11742C1.07982 7.10869 1.67589 6.22392 2.43839 5.46143C3.20088 4.69894 4.10942 4.09947 5.16401 3.65964C6.21859 3.2215 7.36998 3.00073 8.61646 3.00073C9.86294 3.00073 11.0109 3.2198 12.057 3.65964C13.1031 4.09777 14.0083 4.69214 14.7708 5.43766C15.5332 6.18487 16.1259 7.06284 16.5488 8.06987C16.9716 9.07861 17.1839 10.1604 17.1839 11.3151V11.361C17.1839 12.5158 16.9682 13.5975 16.5369 14.6063ZM13.4648 11.361C13.4648 10.6681 13.346 10.0143 13.1065 9.39787C12.8671 8.78312 12.5291 8.24309 12.091 7.78118C11.6528 7.31927 11.1332 6.95415 10.532 6.68414C9.93087 6.41582 9.27706 6.27997 8.56891 6.27997C7.86075 6.27997 7.18657 6.41073 6.5939 6.67225C6.00122 6.93377 5.49346 7.29549 5.06891 7.7574C4.64606 8.21932 4.3149 8.75425 4.07546 9.36221C3.83601 9.97016 3.71714 10.6206 3.71714 11.3134V11.3593C3.71714 12.0522 3.83601 12.7077 4.07546 13.3224C4.31321 13.9389 4.65285 14.4772 5.09098 14.9391C5.52912 15.401 6.04537 15.7678 6.63805 16.0362C7.23072 16.3062 7.88963 16.4403 8.61306 16.4403C9.3365 16.4403 9.97502 16.3096 10.5762 16.048C11.1774 15.7865 11.6885 15.4248 12.1114 14.9629C12.5342 14.501 12.8654 13.966 13.1048 13.3581C13.3426 12.7501 13.4631 12.0997 13.4631 11.4068V11.361H13.4648Z" fill="black"/>
<path d="M28.3772 19.7737V11.887C28.3772 10.9381 28.1653 10.2206 27.7433 9.73645C27.3194 9.25228 26.7206 9.01117 25.9447 9.01117C25.1689 9.01117 24.5564 9.25423 24.1072 9.73645C23.658 10.2187 23.4325 10.9362 23.4325 11.887V19.7737H19.4133V5.59867H23.4325V7.62478C23.6619 7.3234 23.9128 7.03367 24.1869 6.75951C24.4592 6.4834 24.7644 6.24034 25.0989 6.02645C25.4333 5.81256 25.8047 5.64534 26.2092 5.5209C26.6136 5.39645 27.0725 5.33423 27.5839 5.33423C29.1181 5.33423 30.3022 5.80089 31.1403 6.73617C31.9783 7.67145 32.3964 8.95673 32.3964 10.5978V19.7737H28.3772Z" fill="black"/>
<path d="M45.3543 18.9718C44.4735 19.456 43.3262 19.699 41.9165 19.699C40.8587 19.699 39.8749 19.5046 38.9687 19.1176C38.0607 18.7307 37.281 18.2057 36.6276 17.5446C35.9743 16.8835 35.4649 16.1076 35.0935 15.2171C34.724 14.3265 34.5374 13.3796 34.5374 12.3743V12.3218C34.5374 11.3165 34.7221 10.3657 35.0935 9.46541C35.4629 8.56708 35.9743 7.78152 36.6276 7.11264C37.279 6.44375 38.0607 5.91486 38.9687 5.52597C39.8768 5.13902 40.8762 4.94458 41.971 4.94458C43.3107 4.94458 44.421 5.15652 45.3037 5.57847C46.1846 6.00236 46.9604 6.58375 47.6312 7.32458L45.1715 9.96902C44.7126 9.49264 44.2421 9.11347 43.756 8.83152C43.2718 8.54958 42.6671 8.40764 41.9437 8.40764C41.4324 8.40764 40.9696 8.50875 40.5554 8.71097C40.1412 8.91319 39.7796 9.19125 39.4704 9.54319C39.1612 9.89514 38.924 10.3054 38.7568 10.7721C38.5896 11.2387 38.506 11.7365 38.506 12.2654V12.3179C38.506 12.8643 38.5896 13.3757 38.7568 13.8521C38.924 14.3285 39.1671 14.7426 39.484 15.0946C39.801 15.4465 40.1801 15.7246 40.6215 15.9268C41.0629 16.129 41.5549 16.2301 42.1032 16.2301C42.7721 16.2301 43.3593 16.094 43.861 15.8199C44.3626 15.5457 44.8604 15.1801 45.3543 14.7232L47.7071 17.1032C47.0187 17.8615 46.2351 18.4837 45.3543 18.9679V18.9718Z" fill="black"/>
<path d="M63.732 15.1918C63.3431 16.0824 62.8064 16.8621 62.1181 17.5329C61.4298 18.2037 60.6189 18.7326 59.6856 19.1196C58.7503 19.5065 57.7295 19.701 56.6172 19.701C55.505 19.701 54.5114 19.5104 53.5761 19.1332C52.6409 18.754 51.8339 18.2349 51.1573 17.5737C50.4786 16.9126 49.9459 16.1368 49.557 15.2462C49.1681 14.3557 48.9756 13.399 48.9756 12.3762V12.3237C48.9756 11.301 49.17 10.3443 49.557 9.45375C49.9439 8.56319 50.4825 7.78347 51.1709 7.11264C51.8592 6.44375 52.67 5.91486 53.6034 5.52597C54.5367 5.13902 55.5595 4.94458 56.6717 4.94458C57.7839 4.94458 58.7775 5.13514 59.7128 5.51236C60.6461 5.89152 61.4531 6.41069 62.1317 7.0718C62.8103 7.73291 63.3431 8.50875 63.732 9.3993C64.1189 10.2899 64.3134 11.2465 64.3134 12.2693V12.3218C64.3134 13.3446 64.1189 14.3012 63.732 15.1918ZM60.3486 12.3237C60.3486 11.7949 60.2592 11.2971 60.0842 10.8304C59.9073 10.3637 59.6525 9.94958 59.3181 9.58791C58.9836 9.22625 58.587 8.94041 58.1281 8.72847C57.6692 8.51652 57.1675 8.41153 56.6211 8.41153C56.0398 8.41153 55.5245 8.51264 55.0734 8.71486C54.6242 8.91708 54.2411 9.19514 53.9223 9.54708C53.6053 9.89902 53.3623 10.3093 53.195 10.776C53.0278 11.2426 52.9442 11.7404 52.9442 12.2693V12.3218C52.9442 12.8507 53.0317 13.3485 53.2086 13.8151C53.3856 14.2818 53.6403 14.696 53.9748 15.0576C54.3092 15.4193 54.702 15.7051 55.1511 15.9171C55.6003 16.129 56.1078 16.234 56.6717 16.234C57.2356 16.234 57.7684 16.1329 58.2195 15.9307C58.6686 15.7285 59.0517 15.4504 59.3706 15.0985C59.6875 14.7465 59.9306 14.3362 60.0978 13.8696C60.265 13.4029 60.3486 12.9051 60.3486 12.3762V12.3237Z" fill="black"/>
</svg>
