<svg width="31" height="31" viewBox="0 0 31 31" fill="none" xmlns="http://www.w3.org/2000/svg">
<path d="M30.8571 15.4314C30.8571 17.5629 30.4714 19.5657 29.6971 21.44C28.9229 23.2857 27.8457 24.92 26.4629 26.34C25.1086 27.7314 23.4771 28.84 21.5686 29.6657C19.6886 30.46 17.6286 30.86 15.3886 30.86C13.1486 30.86 11.0886 30.4629 9.20857 29.6657C7.32857 28.8429 5.69714 27.7486 4.31429 26.3829C2.96 24.9914 1.89429 23.3714 1.12 21.5229C0.374286 19.6486 0 17.6457 0 15.5143V15.4286C0 13.2971 0.385714 11.3086 1.16 9.46286C1.93429 7.58857 3 5.95429 4.35429 4.56286C5.73714 3.14286 7.36857 2.03429 9.24857 1.23714C11.1571 0.414285 13.2314 0 15.4686 0C17.7057 0 19.7686 0.411428 21.6486 1.23714C23.5286 2.03143 25.1457 3.12571 26.5 4.52C27.8829 5.88286 28.9457 7.50286 29.6943 9.38C30.4686 11.2257 30.8543 13.2171 30.8543 15.3457V15.4314H30.8571Z" fill="#3988FF"/>
<path d="M23.1373 7.71448C22.383 6.99734 21.3202 6.70591 20.3088 6.94306L11.9059 9.08591C10.4888 9.39163 9.38019 10.4973 9.07733 11.9145L6.93447 20.3173C6.66305 21.3316 6.95733 22.4116 7.7059 23.1459C8.28876 23.6916 9.05162 23.9973 9.84876 24.0031H10.5345L18.9373 21.8602C20.3545 21.5545 21.463 20.4488 21.7659 19.0316L23.9088 10.6288C24.2145 9.58877 23.9173 8.46591 23.1373 7.71448ZM15.4202 18.7745C13.5916 18.7288 12.1202 17.2573 12.0773 15.4316C12.123 13.6031 13.5945 12.1316 15.4202 12.0888C17.2488 12.1345 18.7202 13.6059 18.763 15.4316C18.7173 17.2602 17.2459 18.7316 15.4202 18.7745Z" fill="white"/>
</svg>
