<svg preserveAspectRatio="none" width="100%" height="100%" overflow="visible" style="display: block;" viewBox="0 0 19 19" fill="none" xmlns="http://www.w3.org/2000/svg">
<g id="fi_281764">
<path id="Vector" d="M4.20774 11.4738L3.54686 13.941L1.13135 13.9921C0.409464 12.6531 0 11.1212 0 9.49332C0 7.91913 0.382839 6.43465 1.06145 5.12754H1.06197L3.21245 5.52179L4.15449 7.65937C3.95732 8.23419 3.84986 8.85124 3.84986 9.49332C3.84993 10.1902 3.97616 10.8578 4.20774 11.4738Z" fill="var(--fill-0, #FBBB00)"/>
<path id="Vector_2" d="M18.8204 7.71966C18.9295 8.29392 18.9863 8.88698 18.9863 9.49309C18.9863 10.1727 18.9148 10.8357 18.7787 11.4752C18.3166 13.6513 17.1091 15.5515 15.4363 16.8961L15.4358 16.8956L12.7272 16.7574L12.3438 14.3643C13.4538 13.7134 14.3212 12.6947 14.7781 11.4752H9.70192V7.71966H14.8522H18.8204Z" fill="var(--fill-0, #518EF8)"/>
<path id="Vector_3" d="M15.4358 16.8961L15.4363 16.8966C13.8095 18.2043 11.7429 18.9867 9.49326 18.9867C5.87806 18.9867 2.73492 16.966 1.13152 13.9924L4.20791 11.4741C5.00959 13.6137 7.07356 15.1368 9.49326 15.1368C10.5333 15.1368 11.5077 14.8556 12.3438 14.3648L15.4358 16.8961Z" fill="var(--fill-0, #28B446)"/>
<path id="Vector_4" d="M15.5526 2.18549L12.4772 4.70323C11.6119 4.16235 10.589 3.84989 9.49314 3.84989C7.01867 3.84989 4.9161 5.44284 4.15458 7.65914L1.06202 5.12731H1.0615C2.64143 2.08117 5.82421 0 9.49314 0C11.7965 0 13.9085 0.820485 15.5526 2.18549Z" fill="var(--fill-0, #F14336)"/>
</g>
</svg>
