<?xml version="1.0" encoding="UTF-8"?>
<svg version="1.1" xmlns="http://www.w3.org/2000/svg" width="160" height="160">
<path d="M0 0 C0.33 0 0.66 0 1 0 C1.16604736 1.21469971 1.33209473 2.42939941 1.50317383 3.6809082 C2.12768461 8.23499924 2.76180885 12.7877106 3.39868164 17.34008789 C3.671769 19.30164456 3.94233057 21.26355474 4.21020508 23.22583008 C5.609986 41.77822539 5.609986 41.77822539 13 58 C23.60673868 65.09195664 36.39966668 65.27277112 48.75 66.125 C49.9359375 66.21136719 51.121875 66.29773438 52.34375 66.38671875 C55.22884815 66.59612104 58.11420517 66.80047083 61 67 C61 67.66 61 68.32 61 69 C59.80246094 69.15855469 58.60492188 69.31710938 57.37109375 69.48046875 C42.33991075 71.58567211 25.76299447 74.23700553 14.5625 85.4375 C10.84675264 91.53132567 9.33623378 97.37089699 8.2109375 104.3359375 C8.0621817 105.21472565 7.9134259 106.09351379 7.76016235 106.99893188 C7.44862925 108.84886103 7.14127385 110.69949809 6.83789062 112.55078125 C6.37730715 115.36092346 5.9046917 118.16882549 5.4296875 120.9765625 C5.12689931 122.78373621 4.82479357 124.59102442 4.5234375 126.3984375 C4.31562149 127.6410585 4.31562149 127.6410585 4.10360718 128.90878296 C3.22869799 134.26061606 2.55987314 139.60590261 2 145 C1.34 145 0.68 145 0 145 C-0.13051758 144.2064209 -0.26103516 143.4128418 -0.39550781 142.59521484 C-1.58093831 135.40062747 -2.77734658 128.20802638 -3.98924255 121.01785278 C-4.52080651 117.86248241 -5.04802106 114.70664406 -5.56494141 111.54882812 C-6.05232047 108.57208801 -6.55521444 105.59840171 -7.0625 102.625 C-7.20010742 101.76052246 -7.33771484 100.89604492 -7.47949219 100.00537109 C-8.84221438 92.20139176 -11.3792369 85.43432459 -17.7734375 80.44140625 C-31.3501147 71.65229417 -46.21869745 69.64097727 -62 69 C-62 68.34 -62 67.68 -62 67 C-60.78437378 66.93268677 -60.78437378 66.93268677 -59.54418945 66.86401367 C-56.47018172 66.68836234 -53.396987 66.50252994 -50.32397461 66.31030273 C-48.36682222 66.19081643 -46.40899485 66.08255207 -44.45117188 65.97460938 C-27.01639296 65.04836622 -27.01639296 65.04836622 -12 57 C-9.42204798 53.27021472 -8.42886056 50.14730876 -7.71875 45.6875 C-7.51797852 44.45604248 -7.31720703 43.22458496 -7.11035156 41.95581055 C-6.90663298 40.63724842 -6.70318761 39.31864405 -6.5 38 C-6.28432139 36.6532745 -6.06784444 35.30667661 -5.85058594 33.96020508 C-4.41673102 25.00224286 -3.08509112 16.02766104 -1.90039062 7.03320312 C-1.10291976 1.10291976 -1.10291976 1.10291976 0 0 Z " fill="#FCDE3D" transform="translate(99,9)"/>
<path d="M0 0 C0.99 0.33 1.98 0.66 3 1 C3.12060791 1.95253662 3.12060791 1.95253662 3.24365234 2.92431641 C3.61455223 5.82537786 3.99469277 8.7251574 4.375 11.625 C4.50132813 12.62402344 4.62765625 13.62304688 4.7578125 14.65234375 C5.67592251 22.00358978 5.67592251 22.00358978 8 29 C13.77386734 32.51452795 20.39108281 33.07757313 27 34 C27 34.66 27 35.32 27 36 C25.845 36.2475 24.69 36.495 23.5 36.75 C17.13801903 38.35462042 11.69242634 40.37897057 8 46 C7.25570826 48.29746155 7.25570826 48.29746155 6.8671875 50.7734375 C6.70089844 51.6809375 6.53460938 52.5884375 6.36328125 53.5234375 C6.12158203 54.93496094 6.12158203 54.93496094 5.875 56.375 C5.70613281 57.30828125 5.53726563 58.2415625 5.36328125 59.203125 C4.5371585 63.79558688 3.75462586 68.39524219 3 73 C2.34 73 1.68 73 1 73 C0.86948242 72.20827393 0.73896484 71.41654785 0.60449219 70.60083008 C0.00207338 67.00187882 -0.62369097 63.40736735 -1.25 59.8125 C-1.45496094 58.56662109 -1.65992187 57.32074219 -1.87109375 56.03710938 C-2.19013672 54.2340332 -2.19013672 54.2340332 -2.515625 52.39453125 C-2.70415039 51.28956299 -2.89267578 50.18459473 -3.08691406 49.04614258 C-4.31855184 44.9372804 -6.36919114 42.16486347 -9.859375 39.671875 C-14.6381839 37.34171198 -18.69015764 36.37927445 -24 36 C-23.67 35.01 -23.34 34.02 -23 33 C-21.93072266 32.94392578 -21.93072266 32.94392578 -20.83984375 32.88671875 C-14.96500828 32.48346625 -10.10682672 32.04236485 -5 29 C-3.23260917 25.48086911 -2.60593722 22.1504664 -2.1484375 18.26171875 C-1.95507812 16.66166992 -1.95507812 16.66166992 -1.7578125 15.02929688 C-1.56832031 13.37510742 -1.56832031 13.37510742 -1.375 11.6875 C-1.2409375 10.56537109 -1.106875 9.44324219 -0.96875 8.28710938 C-0.63969583 5.52540472 -0.31700007 2.76310984 0 0 Z " fill="#FECA36" transform="translate(27,6)"/>
<path d="M0 0 C0.33 0 0.66 0 1 0 C1.16604736 1.21469971 1.33209473 2.42939941 1.50317383 3.6809082 C2.12768461 8.23499924 2.76180885 12.7877106 3.39868164 17.34008789 C3.671769 19.30164456 3.94233057 21.26355474 4.21020508 23.22583008 C5.609986 41.77822539 5.609986 41.77822539 13 58 C23.60673868 65.09195664 36.39966668 65.27277112 48.75 66.125 C50.52890625 66.25455078 50.52890625 66.25455078 52.34375 66.38671875 C55.22884815 66.59612104 58.11420517 66.80047083 61 67 C61 67.66 61 68.32 61 69 C59.80246094 69.15855469 58.60492188 69.31710938 57.37109375 69.48046875 C42.33991075 71.58567211 25.76299447 74.23700553 14.5625 85.4375 C10.78329148 91.63540198 9.30893962 97.56605146 8.17578125 104.65234375 C8.02465378 105.55247696 7.87352631 106.45261017 7.71781921 107.38002014 C7.24106546 110.2312049 6.77660464 113.08423189 6.3125 115.9375 C5.98974485 117.88099449 5.66618532 119.82435558 5.34179688 121.76757812 C4.55188489 126.51022629 3.7729848 131.25456481 3 136 C2.34 136 1.68 136 1 136 C0.82920423 121.31156385 1.358916 106.67332163 2 92 C2.99 92 3.98 92 5 92 C5.165 91.154375 5.33 90.30875 5.5 89.4375 C8.06977973 83.54842146 12.74878875 80.10514007 18.4375 77.3125 C19.613125 76.879375 20.78875 76.44625 22 76 C23.65016767 75.28069614 25.29592695 74.55120787 26.9375 73.8125 C27.70964844 73.46832031 28.48179688 73.12414062 29.27734375 72.76953125 C29.84582031 72.51558594 30.41429687 72.26164062 31 72 C29.35 72 27.7 72 26 72 C26.33 70.68 26.66 69.36 27 68 C25.93072266 67.814375 25.93072266 67.814375 24.83984375 67.625 C18.34928352 66.22730197 14.64026478 64.49752568 10.4375 59.328125 C6.22824598 52.5109636 4.94441522 45.53479601 3.5390625 37.76367188 C2.54502806 32.62646928 1.65411791 29.08268968 -2.61816406 25.73022461 C-4 24 -4 24 -4.08105469 21.56396484 C-3.94602539 20.62246582 -3.81099609 19.6809668 -3.671875 18.7109375 C-3.53136719 17.68742187 -3.39085938 16.66390625 -3.24609375 15.609375 C-3.08238281 14.54203125 -2.91867188 13.4746875 -2.75 12.375 C-2.60175781 11.29992187 -2.45351562 10.22484375 -2.30078125 9.1171875 C-1.16638669 1.16638669 -1.16638669 1.16638669 0 0 Z " fill="#FEA933" transform="translate(99,9)"/>
<path d="M0 0 C0.99 0 1.98 0 3 0 C3.07516846 0.60996826 3.15033691 1.21993652 3.2277832 1.84838867 C3.57740175 4.62974563 3.94476952 7.40848212 4.3125 10.1875 C4.48942383 11.62706055 4.48942383 11.62706055 4.66992188 13.09570312 C5.53412084 20.04186501 5.53412084 20.04186501 9 26 C11.85818648 27.70094518 14.25217131 28.32115134 17.546875 28.6328125 C18.39121094 28.71660156 19.23554687 28.80039063 20.10546875 28.88671875 C21.41451172 29.00466797 21.41451172 29.00466797 22.75 29.125 C23.63816406 29.21136719 24.52632812 29.29773438 25.44140625 29.38671875 C27.62702936 29.59823066 29.81308238 29.80240227 32 30 C31.67 30.66 31.34 31.32 31 32 C28.61789238 32.54057804 26.281253 32.98042932 23.875 33.375 C15.8213315 34.79870896 15.8213315 34.79870896 9 39 C6.19571114 44.98432869 5.23336964 51.57615592 4.3125 58.0625 C4.18294922 58.92810547 4.05339844 59.79371094 3.91992188 60.68554688 C3.60610144 62.78930608 3.30200786 64.89451257 3 67 C2.34 67 1.68 67 1 67 C0.83395264 66.00202393 0.83395264 66.00202393 0.66455078 64.98388672 C0.15633183 61.9467364 -0.35926569 58.9108828 -0.875 55.875 C-1.04902344 54.82828125 -1.22304688 53.7815625 -1.40234375 52.703125 C-2.61789609 45.19458007 -2.61789609 45.19458007 -5 38 C-7.21776622 36.69485264 -7.21776622 36.69485264 -10 36 C-11.010625 35.484375 -12.02125 34.96875 -13.0625 34.4375 C-18.09066885 32.22510571 -23.58506292 32.25785415 -29 32 C-29 31.34 -29 30.68 -29 30 C-27.69804687 29.89042969 -26.39609375 29.78085938 -25.0546875 29.66796875 C-23.32806654 29.50844399 -21.60150709 29.34825249 -19.875 29.1875 C-19.0190625 29.11724609 -18.163125 29.04699219 -17.28125 28.97460938 C-12.3516693 28.50061123 -8.04614155 28.08367909 -4 25 C-3.0506246 22.26555304 -2.54282472 20.18661579 -2.1875 17.375 C-2.07623779 16.66021484 -1.96497559 15.94542969 -1.8503418 15.20898438 C-1.53670615 13.14212779 -1.26095097 11.07409236 -1 9 C-0.86851563 7.99195312 -0.73703125 6.98390625 -0.6015625 5.9453125 C-0.36772762 3.96719585 -0.1771426 1.98399716 0 0 Z " fill="#F7A94E" transform="translate(50,91)"/>
<path d="M0 0 C0.33 0 0.66 0 1 0 C1.66010579 10.17051887 0.89663501 25.81148812 -6 34 C-10.84098993 38.17359132 -15.77479306 40.67548789 -22 42 C-22 42.66 -22 43.32 -22 44 C-23.98 44.495 -23.98 44.495 -26 45 C-25.07058594 45.42410156 -24.14117187 45.84820312 -23.18359375 46.28515625 C-12.55378191 51.26900263 -4.49772852 56.64510994 0 68 C1.15169054 73.52840442 1.74508556 79.07395326 2.3125 84.6875 C2.48070136 86.18574103 2.65061153 87.68379125 2.82226562 89.18164062 C3.48596111 95.1338539 4.10352757 101.0017628 4 107 C3.34 107 2.68 107 2 107 C1.75092896 105.43487671 1.75092896 105.43487671 1.49682617 103.83813477 C0.87261466 99.92868039 0.23840274 96.02090083 -0.39868164 92.11352539 C-0.67187636 90.42938874 -0.9424382 88.74482262 -1.21020508 87.05981445 C-3.25549588 69.20901437 -3.25549588 69.20901437 -13 55 C-26.99524713 46.08855071 -41.68259682 43.66275167 -58 43 C-58 42.34 -58 41.68 -58 41 C-56.78437378 40.93268677 -56.78437378 40.93268677 -55.54418945 40.86401367 C-52.47018172 40.68836234 -49.396987 40.50252994 -46.32397461 40.31030273 C-44.36682222 40.19081643 -42.40899485 40.08255207 -40.45117188 39.97460938 C-23.01639296 39.04836622 -23.01639296 39.04836622 -8 31 C-5.48398934 27.32975168 -4.40838854 24.18656413 -3.61328125 19.82421875 C-3.39736328 18.66728516 -3.18144531 17.51035156 -2.95898438 16.31835938 C-2.74564453 15.12017578 -2.53230469 13.92199219 -2.3125 12.6875 C-2.08755859 11.46998047 -1.86261719 10.25246094 -1.63085938 8.99804688 C-1.0783172 6.00021165 -0.5350422 3.0009993 0 0 Z " fill="#FCAD42" transform="translate(95,35)"/>
<path d="M0 0 C0.5775 0.78375 1.155 1.5675 1.75 2.375 C4.96569639 6.12664579 7.69452907 7.1738068 12.546875 7.6328125 C13.39121094 7.71660156 14.23554687 7.80039063 15.10546875 7.88671875 C16.41451172 8.00466797 16.41451172 8.00466797 17.75 8.125 C19.08224609 8.25455078 19.08224609 8.25455078 20.44140625 8.38671875 C22.62702936 8.59823066 24.81308238 8.80240227 27 9 C26.67 9.66 26.34 10.32 26 11 C22.2984645 11.68813019 18.61122062 12.21252974 14.87695312 12.6796875 C8.63492194 13.57796836 4.18511644 15.14181082 0.19921875 20.35546875 C-1.16499149 23.36384117 -1.72086458 26.04605203 -2.1875 29.3125 C-2.34605469 30.38113281 -2.50460938 31.44976562 -2.66796875 32.55078125 C-2.77753906 33.35902344 -2.88710938 34.16726562 -3 35 C-3.33 35 -3.66 35 -4 35 C-4.02578125 34.28714844 -4.0515625 33.57429688 -4.078125 32.83984375 C-4.45721325 26.43842178 -5.10412967 22.15939585 -9 17 C-10.93574522 15.40975454 -12.80800445 14.24545202 -15 13 C-14.21625 12.236875 -13.4325 11.47375 -12.625 10.6875 C-9.92742283 8.09108195 -9.92742283 8.09108195 -8 5 C-5.55618498 3.83918787 -3.71705736 3 -1 3 C-0.67 2.01 -0.34 1.02 0 0 Z " fill="#FCE35B" transform="translate(55,112)"/>
<path d="M0 0 C0.66 0.33 1.32 0.66 2 1 C1.60167969 1.42410156 1.20335938 1.84820312 0.79296875 2.28515625 C-2.85601217 6.32478233 -5.38366047 9.77066623 -7 15 C-6.74778687 16.3295874 -6.74778687 16.3295874 -6.49047852 17.68603516 C-5.87212401 21.86400629 -6.47107928 25.3360635 -7.21484375 29.4609375 C-7.34943497 30.25150543 -7.48402618 31.04207336 -7.62269592 31.8565979 C-8.05179944 34.36441338 -8.49442545 36.86961918 -8.9375 39.375 C-9.23201796 41.08187652 -9.5256473 42.78890662 -9.81835938 44.49609375 C-10.53529945 48.66591047 -11.26437074 52.83344152 -12 57 C-12.66 57 -13.32 57 -14 57 C-14.17079577 42.31156385 -13.641084 27.67332163 -13 13 C-12.01 13 -11.02 13 -10 13 C-9.835 12.154375 -9.67 11.30875 -9.5 10.4375 C-7.41945201 5.66957752 -4.02836317 3.16648082 0 0 Z " fill="#FBC330" transform="translate(114,88)"/>
<path d="M0 0 C3.3 0.33 6.6 0.66 10 1 C10 1.66 10 2.32 10 3 C10.66 3 11.32 3 12 3 C13.625 5.5 13.625 5.5 15 8 C16.65 7.67 18.3 7.34 20 7 C19.42358005 17.13704052 17.76356149 27.01757646 16 37 C15.67 37 15.34 37 15 37 C14.86948242 36.23856689 14.73896484 35.47713379 14.60449219 34.69262695 C14.0018719 31.22967108 13.37620322 27.77126574 12.75 24.3125 C12.54503906 23.11431641 12.34007812 21.91613281 12.12890625 20.68164062 C11.91621094 19.52470703 11.70351563 18.36777344 11.484375 17.17578125 C11.20158691 15.58117065 11.20158691 15.58117065 10.91308594 13.9543457 C9.42393067 9.13609227 7.11513572 6.62190261 2.75 4.1875 C1.8425 3.795625 0.935 3.40375 0 3 C0 2.01 0 1.02 0 0 Z " fill="#F89D26" transform="translate(13,41)"/>
<path d="M0 0 C22.03045685 1.03045685 22.03045685 1.03045685 27 6 C27 6.99 27 7.98 27 9 C27.66 9 28.32 9 29 9 C29.508783 10.55966218 30.00663469 12.12289241 30.5 13.6875 C30.7784375 14.55761719 31.056875 15.42773438 31.34375 16.32421875 C31.99850805 18.99391677 32.11831495 21.26396684 32 24 C27.77586008 22.10642003 25.70020558 20.1253304 23.25 16.1875 C17.33138518 7.80279567 9.27899868 4.62923388 0 1 C0 0.67 0 0.34 0 0 Z " fill="#FCEA58" transform="translate(66,79)"/>
<path d="M0 0 C13.86 0.99 13.86 0.99 28 2 C28 2.66 28 3.32 28 4 C26.80246094 4.15855469 25.60492188 4.31710938 24.37109375 4.48046875 C9.16664194 6.6099394 -6.66895941 9.40562051 -18.375 20.1875 C-20.89372658 24.54683446 -22.42943618 29.22983011 -24 34 C-24.66 33.67 -25.32 33.34 -26 33 C-25.52126699 25.3402718 -22.35792049 19.90138887 -16.6875 14.75 C-10.80648682 10.05282714 -4.02406893 7.50859605 3 5 C1.02 4.34 -0.96 3.68 -3 3 C-2.01 2.67 -1.02 2.34 0 2 C0 1.34 0 0.68 0 0 Z " fill="#EF9D29" transform="translate(132,74)"/>
<path d="M0 0 C7.91184159 0.41641272 14.69428067 5.21085541 19.875 10.9375 C24.83216875 16.8038982 27.40978334 22.05889747 28.265625 29.69140625 C28.34874939 30.39974106 28.43187378 31.10807587 28.51751709 31.83787537 C28.77636118 34.0780373 29.01309963 36.31992376 29.25 38.5625 C29.42311713 40.06981851 29.59758521 41.57698251 29.7734375 43.08398438 C30.45448626 49.06964718 31.10957809 54.9656281 31 61 C30.34 61 29.68 61 29 61 C28.83395264 59.95658447 28.66790527 58.91316895 28.49682617 57.83813477 C27.87261466 53.92868039 27.23840274 50.02090083 26.60131836 46.11352539 C26.32812364 44.42938874 26.0575618 42.74482262 25.78979492 41.05981445 C23.694962 23.26872531 23.694962 23.26872531 14 9 C9.49577447 6.05066147 4.75872753 3.50973986 0 1 C0 0.67 0 0.34 0 0 Z " fill="#F5AA3A" transform="translate(68,81)"/>
<path d="M0 0 C0.99 0 1.98 0 3 0 C3.33970765 2.49927769 3.67188032 4.99919595 4 7.5 C4.09539063 8.19609375 4.19078125 8.8921875 4.2890625 9.609375 C4.91628589 14.44795547 5.25460328 19.12010386 5 24 C4.34 24.66 3.68 25.32 3 26 C1 26 -1 26 -3 26 C-2.86722656 24.87722656 -2.73445313 23.75445312 -2.59765625 22.59765625 C-1.70859875 15.06755768 -0.82229944 7.53774489 0 0 Z " fill="#FCB248" transform="translate(50,91)"/>
<path d="M0 0 C0.33 0 0.66 0 1 0 C1.08736736 3.72901814 1.14051482 7.45777165 1.1875 11.1875 C1.21263672 12.24259766 1.23777344 13.29769531 1.26367188 14.38476562 C1.27333984 15.40634766 1.28300781 16.42792969 1.29296875 17.48046875 C1.3086792 18.41785889 1.32438965 19.35524902 1.34057617 20.32104492 C0.93553587 23.5070716 -0.24444702 25.34380882 -2 28 C-2.62275056 30.25565804 -2.62275056 30.25565804 -2.9375 32.5 C-3.80429088 36.6482135 -4.756583 39.08924115 -8 42 C-13.15811535 44.94892253 -18.10246654 46.49808226 -24 47 C-21.58261933 44.58261933 -19.23539188 43.66450584 -16.125 42.25 C-11.19319514 39.78115145 -8.19821549 38.25660225 -6 33 C-4.80254558 28.69905133 -3.8354596 24.38483254 -3 20 C-2.80664062 19.00484375 -2.61328125 18.0096875 -2.4140625 16.984375 C-1.83811258 12.83318879 -2.03020391 8.78864233 -2.16015625 4.609375 C-2 2 -2 2 0 0 Z " fill="#FED977" transform="translate(97,31)"/>
<path d="M0 0 C0.33 0 0.66 0 1 0 C1 1.65 1 3.3 1 5 C1.598125 5.28875 2.19625 5.5775 2.8125 5.875 C5 7 5 7 8 9 C7.46884894 13.51478398 5.63379708 16.34666857 3 20 C1.0625 19.25 1.0625 19.25 -1 18 C-1.75 15.875 -1.75 15.875 -2 14 C-2.66 14 -3.32 14 -4 14 C-4 13.34 -4 12.68 -4 12 C-5.65 12 -7.3 12 -9 12 C-8.4225 11.7525 -7.845 11.505 -7.25 11.25 C-4.58421598 9.76900888 -2.91797067 8.38092911 -1 6 C-0.19684346 2.85518209 -0.19684346 2.85518209 0 0 Z " fill="#FFDC3D" transform="translate(27,30)"/>
<path d="M0 0 C0.33 0 0.66 0 1 0 C1.53606515 3.37276197 2.0510996 6.74841744 2.5625 10.125 C2.71396484 11.07632812 2.86542969 12.02765625 3.02148438 13.0078125 C4.00528454 19.5969857 4.44614827 25.02667634 1 31 C0.731875 30.401875 0.46375 29.80375 0.1875 29.1875 C-0.84297684 26.96091982 -0.84297684 26.96091982 -2.59472656 25.69384766 C-4 24 -4 24 -4.08105469 21.56396484 C-3.94602539 20.62246582 -3.81099609 19.6809668 -3.671875 18.7109375 C-3.53136719 17.68742187 -3.39085938 16.66390625 -3.24609375 15.609375 C-3.08238281 14.54203125 -2.91867188 13.4746875 -2.75 12.375 C-2.60175781 11.29992187 -2.45351562 10.22484375 -2.30078125 9.1171875 C-1.16638669 1.16638669 -1.16638669 1.16638669 0 0 Z " fill="#FDAC4E" transform="translate(99,9)"/>
<path d="M0 0 C2.22941405 0.31073024 4.45852212 0.62365625 6.6875 0.9375 C7.92886719 1.11152344 9.17023437 1.28554688 10.44921875 1.46484375 C13.32474548 1.89822897 16.15644813 2.39649282 19 3 C19 3.66 19 4.32 19 5 C17.845 5.2475 16.69 5.495 15.5 5.75 C9.13801903 7.35462042 3.69242634 9.37897057 0 15 C-0.74429174 17.29746155 -0.74429174 17.29746155 -1.1328125 19.7734375 C-1.29910156 20.6809375 -1.46539062 21.5884375 -1.63671875 22.5234375 C-1.87841797 23.93496094 -1.87841797 23.93496094 -2.125 25.375 C-2.29386719 26.30828125 -2.46273437 27.2415625 -2.63671875 28.203125 C-3.4628415 32.79558688 -4.24537414 37.39524219 -5 42 C-5.66 41.67 -6.32 41.34 -7 41 C-6.30924728 36.92436865 -5.61540264 32.84927699 -4.91870117 28.7746582 C-4.68217506 27.38873513 -4.4464911 26.00266805 -4.21166992 24.61645508 C-3.87380399 22.6228318 -3.53264776 20.62976702 -3.19140625 18.63671875 C-2.98717041 17.43748779 -2.78293457 16.23825684 -2.57250977 15.00268555 C-2 12 -2 12 -1 9 C1.89558441 7.5522078 3.74188938 7 7 7 C7 6.34 7 5.68 7 5 C3.535 3.02 3.535 3.02 0 1 C0 0.67 0 0.34 0 0 Z " fill="#FBC98A" transform="translate(35,37)"/>
<path d="M0 0 C3.875 4.75 3.875 4.75 5 7 C4.34 7 3.68 7 3 7 C3 7.66 3 8.32 3 9 C3.598125 9.12375 4.19625 9.2475 4.8125 9.375 C7 10 7 10 10 12 C8.54207116 12.05399736 7.08357288 12.09279177 5.625 12.125 C4.81289063 12.14820312 4.00078125 12.17140625 3.1640625 12.1953125 C1 12 1 12 -1 10 C-2.85266073 10.29485154 -2.85266073 10.29485154 -5 11 C-8.125 11.6875 -8.125 11.6875 -11 12 C-11.66 11.34 -12.32 10.68 -13 10 C-9.88326378 6.61611496 -7.45076606 4.32320072 -3 3 C-2.34 3 -1.68 3 -1 3 C-0.67 2.01 -0.34 1.02 0 0 Z " fill="#FCDA3B" transform="translate(55,112)"/>
<path d="M0 0 C0.99 0.33 1.98 0.66 3 1 C3.33 17.17 3.66 33.34 4 50 C3.34 50 2.68 50 2 50 C0.93210508 46.54190499 0.91595102 43.4113855 0.96875 39.8046875 C1.02854272 31.56824057 0.77891908 23.35592078 0.5 15.125 C0.45161485 13.64714221 0.40343675 12.16927763 0.35546875 10.69140625 C0.23935443 7.12752303 0.12047885 3.56373866 0 0 Z " fill="#FDE45F" transform="translate(97,104)"/>
<path d="M0 0 C14.26086957 0.63043478 14.26086957 0.63043478 21 4 C21.33 4.99 21.66 5.98 22 7 C22.99 7.33 23.98 7.66 25 8 C25.33 9.65 25.66 11.3 26 13 C25.01 12.67 24.02 12.34 23 12 C23 11.34 23 10.68 23 10 C22.42507812 10.22042969 21.85015625 10.44085938 21.2578125 10.66796875 C19 11 19 11 16.9921875 9.92578125 C16.29351562 9.39339844 15.59484375 8.86101562 14.875 8.3125 C10.19087086 4.9689203 5.40260724 2.91741802 0 1 C0 0.67 0 0.34 0 0 Z " fill="#FCE86C" transform="translate(66,79)"/>
<path d="M0 0 C1.2065625 0.0309375 1.2065625 0.0309375 2.4375 0.0625 C2.4375 0.7225 2.4375 1.3825 2.4375 2.0625 C3.0975 2.0625 3.7575 2.0625 4.4375 2.0625 C6.0625 4.5625 6.0625 4.5625 7.4375 7.0625 C9.0875 6.7325 10.7375 6.4025 12.4375 6.0625 C12.30472656 6.64257812 12.17195313 7.22265625 12.03515625 7.8203125 C11.04045999 12.22020982 10.12381668 16.60144158 9.4375 21.0625 C8.7775 21.0625 8.1175 21.0625 7.4375 21.0625 C7.1075 17.4325 6.7775 13.8025 6.4375 10.0625 C5.7775 10.0625 5.1175 10.0625 4.4375 10.0625 C3.16349625 8.59249567 1.8939992 7.11734219 0.6796875 5.59765625 C-0.63586124 3.97183658 -2.04463245 2.50047979 -3.5625 1.0625 C-2.5625 0.0625 -2.5625 0.0625 0 0 Z " fill="#FDC42A" transform="translate(20.5625,41.9375)"/>
<path d="M0 0 C0.66 0 1.32 0 2 0 C1.38716379 8.14079756 0.27232142 16.1361213 -1.0625 24.1875 C-1.24876953 25.33025391 -1.43503906 26.47300781 -1.62695312 27.65039062 C-2.08121066 30.43417395 -2.53894601 33.21733571 -3 36 C-3.66 36 -4.32 36 -5 36 C-4.72575637 31.34952821 -4.43790424 26.7002782 -4.13232422 22.05175781 C-4.01955429 20.30319976 -3.91691647 18.55399309 -3.81640625 16.8046875 C-3.39788512 10.80873165 -2.19765455 5.59779933 0 0 Z " fill="#F49628" transform="translate(105,109)"/>
<path d="M0 0 C0.33 0 0.66 0 1 0 C1.19335938 1.12277344 1.38671875 2.24554688 1.5859375 3.40234375 C3.42041378 16.76532024 3.42041378 16.76532024 7.6875 29.375 C8.120625 30.24125 8.55375 31.1075 9 32 C8.67 32.99 8.34 33.98 8 35 C0.83825428 26.51898533 -0.16436222 20.6104487 -0.0625 9.625 C-0.05798828 8.69816406 -0.05347656 7.77132812 -0.04882812 6.81640625 C-0.03711574 4.54420291 -0.02071372 2.27213612 0 0 Z " fill="#FEE18B" transform="translate(101,36)"/>
<path d="M0 0 C0.66 0.33 1.32 0.66 2 1 C2 5.29 2 9.58 2 14 C1.34 14 0.68 14 0 14 C-0.03738281 14.58007812 -0.07476563 15.16015625 -0.11328125 15.7578125 C-0.61497308 21.7190919 -1.35385243 26.60192877 -6 30.8125 C-10.48705023 32.58862405 -15.17636728 33.16311801 -20 33 C-20.66 32.34 -21.32 31.68 -22 31 C-21.10796875 30.87882812 -20.2159375 30.75765625 -19.296875 30.6328125 C-18.12640625 30.46523438 -16.9559375 30.29765625 -15.75 30.125 C-14.58984375 29.96257813 -13.4296875 29.80015625 -12.234375 29.6328125 C-8.3534455 28.89695801 -8.3534455 28.89695801 -5 27 C-3.39906701 23.58549272 -2.62800269 20.42674821 -2.1484375 16.69921875 C-1.95507812 15.23452148 -1.95507812 15.23452148 -1.7578125 13.74023438 C-1.63148437 12.73283203 -1.50515625 11.72542969 -1.375 10.6875 C-1.2409375 9.66076172 -1.106875 8.63402344 -0.96875 7.57617188 C-0.63995296 5.05148034 -0.31724083 2.52616521 0 0 Z " fill="#FDAB47" transform="translate(27,8)"/>
<path d="M0 0 C0.33 0 0.66 0 1 0 C1.2232273 6.36197802 1.10842932 11.91844946 -2.625 17.375 C-6.05536962 19.72209501 -8.86367959 19.6717206 -13 20 C-13.99 20.33 -14.98 20.66 -16 21 C-18.04296875 20.87890625 -18.04296875 20.87890625 -20.1875 20.5625 C-21.445625 20.376875 -22.70375 20.19125 -24 20 C-23.505 18.515 -23.505 18.515 -23 17 C-21.576875 17.309375 -21.576875 17.309375 -20.125 17.625 C-15.34802402 18.29767621 -10.50183947 17.73934707 -6 16 C-2.99813377 12.99813377 -2.242185 9.82290572 -1.3125 5.75 C-1.06113281 4.67234375 -0.80976563 3.5946875 -0.55078125 2.484375 C-0.36902344 1.66453125 -0.18726562 0.8446875 0 0 Z " fill="#FEE18F" transform="translate(27,22)"/>
<path d="M0 0 C1.09054688 0.09087891 1.09054688 0.09087891 2.203125 0.18359375 C3.71132813 0.30927734 3.71132813 0.30927734 5.25 0.4375 C8.65625 0.72135417 12.0625 1.00520833 15.46875 1.2890625 C17.09296875 1.42441406 17.09296875 1.42441406 18.75 1.5625 C21.375 1.78125 21.375 1.78125 24 2 C23.67 2.66 23.34 3.32 23 4 C20.53728215 4.53472764 18.17899144 4.93302822 15.6875 5.25 C15.01009766 5.353125 14.33269531 5.45625 13.63476562 5.5625 C9.77318329 6.07586774 7.27451152 6.20355363 4 4 C3.2575 3.62875 2.515 3.2575 1.75 2.875 C1.1725 2.58625 0.595 2.2975 0 2 C0 1.34 0 0.68 0 0 Z " fill="#FDBE71" transform="translate(58,119)"/>
<path d="M0 0 C1.66402832 2.98602075 2.41137644 5.5861061 2.9296875 8.95703125 C3.08566406 9.90513672 3.24164063 10.85324219 3.40234375 11.83007812 C3.71544617 13.80572849 4.02281527 15.78229668 4.32421875 17.75976562 C5.51591272 24.91477374 7.23751854 31.10189076 13 36 C8.44314185 35.52754982 8.44314185 35.52754982 6.5234375 33.2421875 C1.47943457 22.84536513 -0.73321151 11.54129225 0 0 Z " fill="#F9A13E" transform="translate(102,34)"/>
<path d="M0 0 C-6.24161903 3.58125682 -10.75420281 5.67090715 -18 5 C-18.66 3.68 -19.32 2.36 -20 1 C-18.68 1.33 -17.36 1.66 -16 2 C-16 1.34 -16 0.68 -16 0 C-13.89651926 -0.19504458 -11.79217415 -0.38078496 -9.6875 -0.5625 C-8.51574219 -0.66691406 -7.34398437 -0.77132812 -6.13671875 -0.87890625 C-3 -1 -3 -1 0 0 Z " fill="#FDDF63" transform="translate(68,124)"/>
<path d="M0 0 C0.66 0.33 1.32 0.66 2 1 C1.60167969 1.42410156 1.20335938 1.84820312 0.79296875 2.28515625 C-2.85601217 6.32478233 -5.38366047 9.77066623 -7 15 C-6.79653753 18.32224191 -6.79653753 18.32224191 -6 21 C-6.99 21 -7.98 21 -9 21 C-9.33 23.31 -9.66 25.62 -10 28 C-10.33 28 -10.66 28 -11 28 C-11.38504559 18.56638316 -9.48640772 10.82040438 -4 3 C-1.8359375 1.234375 -1.8359375 1.234375 0 0 Z " fill="#F9B722" transform="translate(114,88)"/>
<path d="M0 0 C-0.9075 0.144375 -1.815 0.28875 -2.75 0.4375 C-5.77454149 0.88041841 -5.77454149 0.88041841 -7.71875 1.5625 C-11.08475553 2.20803531 -14.36053647 1.8412177 -17.75 1.5625 C-18.44738281 1.51029297 -19.14476562 1.45808594 -19.86328125 1.40429688 C-21.57596203 1.27525928 -23.28805066 1.13840386 -25 1 C-25 0.34 -25 -0.32 -25 -1 C-4.78452579 -3.18968386 -4.78452579 -3.18968386 0 0 Z " fill="#FDBD78" transform="translate(62,77)"/>
<path d="M0 0 C0.33 0 0.66 0 1 0 C1.80947706 3.56817487 2.16206411 6.90481856 2.1875 10.5625 C2.20167969 11.49191406 2.21585937 12.42132813 2.23046875 13.37890625 C1.99341557 16.07488389 1.37270136 17.69407875 0 20 C0 18.35 0 16.7 0 15 C-0.66 15 -1.32 15 -2 15 C-2.05429959 13.25034642 -2.09292823 11.50020213 -2.125 9.75 C-2.15980469 8.28820312 -2.15980469 8.28820312 -2.1953125 6.796875 C-1.99862781 3.9803502 -1.44568916 2.39050964 0 0 Z " fill="#FFCE3E" transform="translate(99,35)"/>
<path d="M0 0 C-1.6396875 0.7115625 -1.6396875 0.7115625 -3.3125 1.4375 C-6.48502855 3.25402844 -7.65085864 4.72677678 -8.8125 8.1875 C-9.24185931 9.78302039 -9.63669525 11.38815498 -10 13 C-10.20367187 13.85335937 -10.40734375 14.70671875 -10.6171875 15.5859375 C-11.1084198 17.71909693 -11.56877731 19.85403299 -12 22 C-12.33 22 -12.66 22 -13 22 C-14.03272196 9.45434065 -14.03272196 9.45434065 -10.25 4.3125 C-7.19135487 0.70546143 -4.72932502 -1.57644167 0 0 Z " fill="#F6A537" transform="translate(66,126)"/>
<path d="M0 0 C0.66 0 1.32 0 2 0 C2.33 4.29 2.66 8.58 3 13 C2.01 13.495 2.01 13.495 1 14 C0.08968728 16.34386809 0.08968728 16.34386809 -0.625 19.0625 C-0.88539062 19.98160156 -1.14578125 20.90070313 -1.4140625 21.84765625 C-1.60742188 22.55792969 -1.80078125 23.26820312 -2 24 C-3.07041123 20.78876631 -2.93878878 19.39600592 -2.44140625 16.11328125 C-2.30283203 15.17548828 -2.16425781 14.23769531 -2.02148438 13.27148438 C-1.87001953 12.29501953 -1.71855469 11.31855469 -1.5625 10.3125 C-1.41490234 9.32443359 -1.26730469 8.33636719 -1.11523438 7.31835938 C-0.74975343 4.87788987 -0.37777429 2.43859165 0 0 Z " fill="#F9892D" transform="translate(50,92)"/>
<path d="M0 0 C0.99 0.33 1.98 0.66 3 1 C3.53330505 4.5815927 4.04946167 8.16545271 4.5625 11.75 C4.71396484 12.76578125 4.86542969 13.7815625 5.02148438 14.828125 C5.16005859 15.8078125 5.29863281 16.7875 5.44140625 17.796875 C5.57232666 18.69760742 5.70324707 19.59833984 5.83813477 20.52636719 C5.99736203 22.95968635 5.73710222 24.69214003 5 27 C2.52520287 24.52520287 2.65938416 23.52269657 2.40234375 20.09765625 C2.32306641 19.12505859 2.24378906 18.15246094 2.16210938 17.15039062 C2.08798828 16.13138672 2.01386719 15.11238281 1.9375 14.0625 C1.78313 12.05313842 1.62571143 10.04400808 1.46484375 8.03515625 C1.399021 7.1419165 1.33319824 6.24867676 1.26538086 5.32836914 C1.06382554 2.84687513 1.06382554 2.84687513 0 0 Z " fill="#FED491" transform="translate(27,6)"/>
<path d="M0 0 C6.625 0.75 6.625 0.75 10 3 C10.33 3.99 10.66 4.98 11 6 C12.65 6 14.3 6 16 6 C13.04816899 8.95183101 10.04488053 9.08663988 6 10 C6.33 9.01 6.66 8.02 7 7 C6.34 6.67 5.68 6.34 5 6 C5.66 6 6.32 6 7 6 C7 5.34 7 4.68 7 4 C6.01 4 5.02 4 4 4 C4 3.34 4 2.68 4 2 C2.68 1.67 1.36 1.34 0 1 C0 0.67 0 0.34 0 0 Z " fill="#FDC936" transform="translate(116,74)"/>
<path d="M0 0 C0.33 0.99 0.66 1.98 1 3 C-0.32 3.99 -1.64 4.98 -3 6 C-2.67 6.66 -2.34 7.32 -2 8 C-6.75 9.125 -6.75 9.125 -9 8 C-9 6.68 -9 5.36 -9 4 C-6.03 2.68 -3.06 1.36 0 0 Z " fill="#FDC062" transform="translate(46,116)"/>
<path d="M0 0 C0.33 0 0.66 0 1 0 C1.33 6.93 1.66 13.86 2 21 C1.34 21 0.68 21 0 21 C-0.82514784 18.16615892 -1.07936233 15.83064749 -0.87890625 12.890625 C-0.83056641 12.13652344 -0.78222656 11.38242188 -0.73242188 10.60546875 C-0.67634766 9.82816406 -0.62027344 9.05085937 -0.5625 8.25 C-0.51029297 7.45722656 -0.45808594 6.66445312 -0.40429688 5.84765625 C-0.27510676 3.89806003 -0.13830035 1.94897114 0 0 Z " fill="#FAB46A" transform="translate(99,133)"/>
<path d="M0 0 C0.99 0.66 1.98 1.32 3 2 C-1.24115452 5.71101021 -6.39377956 7.83711122 -12 8.1875 C-12.66 8.125625 -13.32 8.06375 -14 8 C-11.53379711 5.53379711 -9.00595031 4.40716717 -5.875 2.875 C-4.77929688 2.33617188 -3.68359375 1.79734375 -2.5546875 1.2421875 C-1.71164063 0.83226563 -0.86859375 0.42234375 0 0 Z " fill="#FFE569" transform="translate(87,70)"/>
<path d="M0 0 C1.45703125 1.01953125 1.45703125 1.01953125 3 3 C3.37644848 5.62939205 3.60133087 8.05072472 3.6875 10.6875 C3.72166016 11.38939453 3.75582031 12.09128906 3.79101562 12.81445312 C3.87329947 14.54241387 3.9383324 16.27118072 4 18 C3.34 18 2.68 18 2 18 C1.6603981 16.12612523 1.32861309 14.25083303 1 12.375 C0.7215625 10.80878906 0.7215625 10.80878906 0.4375 9.2109375 C0.01284203 6.09425135 -0.07545206 3.14069188 0 0 Z " fill="#F7A741" transform="translate(95,124)"/>
<path d="M0 0 C0 0.66 0 1.32 0 2 C-2.22850277 2.33774332 -4.45783467 2.6700187 -6.6875 3 C-8.54955078 3.2784375 -8.54955078 3.2784375 -10.44921875 3.5625 C-13.35886371 3.92100411 -16.07700022 4.08942256 -19 4 C-14.19680462 -0.80319538 -6.36918685 -0.26538279 0 0 Z " fill="#F9A65A" transform="translate(160,76)"/>
<path d="M0 0 C4.16138263 -0.08159574 7.9472484 0.01751476 12 1 C8.96474514 3.02350324 7.80573798 3.32124018 4.3125 3.625 C3.50425781 3.69976562 2.69601563 3.77453125 1.86328125 3.8515625 C1.24839844 3.90054688 0.63351563 3.94953125 0 4 C0 2.68 0 1.36 0 0 Z " fill="#FE943E" transform="translate(139,75)"/>
<path d="M0 0 C3.875 4.75 3.875 4.75 5 7 C4.34 7 3.68 7 3 7 C3 7.66 3 8.32 3 9 C4.32 9.33 5.64 9.66 7 10 C5 11 5 11 2.4375 10.4375 C0 9 0 9 -0.875 6.0625 C-1 3 -1 3 0 0 Z " fill="#FECB53" transform="translate(55,112)"/>
<path d="M0 0 C0.66 0 1.32 0 2 0 C2.33 4.95 2.66 9.9 3 15 C2.67 14.34 2.34 13.68 2 13 C1.34 13 0.68 13 0 13 C-1.28571429 4.57142857 -1.28571429 4.57142857 0 0 Z " fill="#F99F27" transform="translate(94,111)"/>
<path d="M0 0 C7.50769231 -0.36923077 7.50769231 -0.36923077 10 1.5 C10.495 2.2425 10.495 2.2425 11 3 C6.9472484 3.98248524 3.16138263 4.08159574 -1 4 C-0.67 2.68 -0.34 1.36 0 0 Z " fill="#FDB92A" transform="translate(126,77)"/>
<path d="M0 0 C0.33 0 0.66 0 1 0 C1.33 4.29 1.66 8.58 2 13 C1.67 12.34 1.34 11.68 1 11 C0.01 11 -0.98 11 -2 11 C-1.85957123 9.35369672 -1.71250671 7.70795821 -1.5625 6.0625 C-1.48128906 5.14597656 -1.40007812 4.22945312 -1.31640625 3.28515625 C-1 1 -1 1 0 0 Z " fill="#FDB76E" transform="translate(99,9)"/>
<path d="M0 0 C-0.875 4.75 -0.875 4.75 -2 7 C-4.97 6.505 -4.97 6.505 -8 6 C-3.375 0 -3.375 0 0 0 Z " fill="#FCCC2E" transform="translate(50,117)"/>
<path d="M0 0 C0.99 0.33 1.98 0.66 3 1 C3.07654536 5.51617599 3.10228696 9.59085217 2 14 C1.67 14 1.34 14 1 14 C-0.20568053 9.32798795 -0.09382426 4.78503708 0 0 Z " fill="#F9AC33" transform="translate(92,102)"/>
<path d="M0 0 C0.33 0.66 0.66 1.32 1 2 C-0.98 4.97 -0.98 4.97 -3 8 C-3.33 7.34 -3.66 6.68 -4 6 C-2.68 4.02 -1.36 2.04 0 0 Z M-7 8 C-6.01 8 -5.02 8 -4 8 C-4 8.99 -4 9.98 -4 11 C-4.66 11 -5.32 11 -6 11 C-6 13.97 -6 16.94 -6 20 C-6.33 20 -6.66 20 -7 20 C-7 16.04 -7 12.08 -7 8 Z " fill="#FACF29" transform="translate(108,93)"/>
<path d="M0 0 C2.31 0.33 4.62 0.66 7 1 C7 1.99 7 2.98 7 4 C7.66 4.33 8.32 4.66 9 5 C8.67 5.66 8.34 6.32 8 7 C7.113125 6.525625 6.22625 6.05125 5.3125 5.5625 C2.42957244 4.20262851 0.12389377 3.45939614 -3 3 C-2.01 2.67 -1.02 2.34 0 2 C0 1.34 0 0.68 0 0 Z " fill="#FC992F" transform="translate(132,74)"/>
<path d="M0 0 C4.29 0.33 8.58 0.66 13 1 C12.67 1.66 12.34 2.32 12 3 C12.66 3.33 13.32 3.66 14 4 C14 4.66 14 5.32 14 6 C9.27934033 4.45730076 4.58335908 2.92205381 0 1 C0 0.67 0 0.34 0 0 Z " fill="#FDDE70" transform="translate(66,79)"/>
<path d="M0 0 C1.63001953 0.15275391 1.63001953 0.15275391 3.29296875 0.30859375 C4.54013672 0.43427734 4.54013672 0.43427734 5.8125 0.5625 C0.63942081 4.01121946 -2.30281196 3.60655756 -8.1875 2.5625 C-8.5175 1.9025 -8.8475 1.2425 -9.1875 0.5625 C-5.76060364 -0.57979879 -3.57647782 -0.34611076 0 0 Z " fill="#FEC160" transform="translate(72.1875,74.4375)"/>
<path d="M0 0 C0.33 0 0.66 0 1 0 C1.84888195 5.37625234 2.0024305 9.65370398 1 15 C0.34 15 -0.32 15 -1 15 C-1.02715383 13.25008666 -1.04646551 11.50005055 -1.0625 9.75 C-1.07410156 8.77546875 -1.08570313 7.8009375 -1.09765625 6.796875 C-1.01195577 4.34241322 -0.70706066 2.33831086 0 0 Z " fill="#FBB363" transform="translate(52,143)"/>
<path d="M0 0 C0.2475 0.515625 0.495 1.03125 0.75 1.5625 C4.07600889 8.36234672 4.07600889 8.36234672 9 14 C6.6796875 13.8046875 6.6796875 13.8046875 4 13 C2.3828125 10.8203125 2.3828125 10.8203125 1.125 8.125 C0.69445312 7.24070312 0.26390625 6.35640625 -0.1796875 5.4453125 C-1 3 -1 3 0 0 Z " fill="#FCB346" transform="translate(106,56)"/>
<path d="M0 0 C0.33 0 0.66 0 1 0 C0.88541307 1.43836751 0.75790884 2.87570966 0.625 4.3125 C0.55539063 5.11300781 0.48578125 5.91351563 0.4140625 6.73828125 C0 9 0 9 -2 12 C-2.99 12 -3.98 12 -5 12 C-3.41037341 7.96479403 -1.71767682 3.98188718 0 0 Z " fill="#FFE899" transform="translate(93,59)"/>
<path d="M0 0 C1.32 0 2.64 0 4 0 C3.67 1.32 3.34 2.64 3 4 C1.35 4.33 -0.3 4.66 -2 5 C-2.66 3.68 -3.32 2.36 -4 1 C-2.68 1.33 -1.36 1.66 0 2 C0 1.34 0 0.68 0 0 Z " fill="#FCEC72" transform="translate(52,124)"/>
<path d="M0 0 C3.32104626 0.55350771 6.16244492 1.14091219 9 3 C10.25 5.125 10.25 5.125 11 7 C5.25 5.125 5.25 5.125 3 4 C3 3.34 3 2.68 3 2 C2.01 1.67 1.02 1.34 0 1 C0 0.67 0 0.34 0 0 Z " fill="#FDE889" transform="translate(77,81)"/>
<path d="M0 0 C0.33 0 0.66 0 1 0 C2.10228696 4.40914783 2.07654536 8.48382401 2 13 C-0.63994297 10.36005703 -1.22395215 8.43966299 -1.25 4.8125 C-1 1 -1 1 0 0 Z " fill="#FEBC26" transform="translate(99,35)"/>
<path d="M0 0 C0.99 0 1.98 0 3 0 C4.5625 2.8125 4.5625 2.8125 6 6 C5.67 6.99 5.34 7.98 5 9 C0 3.375 0 3.375 0 0 Z " fill="#FFE897" transform="translate(104,62)"/>
<path d="M0 0 C4.66666667 0.66666667 9.33333333 1.33333333 14 2 C13.401875 2.144375 12.80375 2.28875 12.1875 2.4375 C10.43849596 2.8872439 8.71322977 3.42892341 7 4 C4.95703125 3.87890625 4.95703125 3.87890625 2.8125 3.5625 C1.554375 3.376875 0.29625 3.19125 -1 3 C-0.67 2.01 -0.34 1.02 0 0 Z " fill="#FCC275" transform="translate(4,39)"/>
<path d="M0 0 C1.37095624 3.69037278 0.60010967 5.70883835 -0.9375 9.25 C-1.31777344 10.14203125 -1.69804688 11.0340625 -2.08984375 11.953125 C-2.39019531 12.62859375 -2.69054687 13.3040625 -3 14 C-4.04728614 10.85814159 -3.99290464 10.05937877 -3.1875 7 C-3.01605469 6.319375 -2.84460938 5.63875 -2.66796875 4.9375 C-2 3 -2 3 0 0 Z " fill="#FFE55A" transform="translate(97,54)"/>
<path d="M0 0 C3.2542015 2.83430453 4.5206753 4.68607774 5 9 C3.125 8.375 3.125 8.375 1 7 C-0.25 3.875 -0.25 3.875 -1 1 C-0.67 0.67 -0.34 0.34 0 0 Z " fill="#FCE24B" transform="translate(91,93)"/>
<path d="M0 0 C0.99 0 1.98 0 3 0 C3 1.98 3 3.96 3 6 C2.34 6 1.68 6 1 6 C0.67 6.99 0.34 7.98 0 9 C-1.15941038 5.52176885 -0.70820884 3.54104422 0 0 Z " fill="#FDAC56" transform="translate(96,25)"/>
<path d="M0 0 C1.32 0.66 2.64 1.32 4 2 C3.67 3.65 3.34 5.3 3 7 C1.68 6.67 0.36 6.34 -1 6 C-0.67 4.02 -0.34 2.04 0 0 Z " fill="#FDBF2A" transform="translate(51,110)"/>
<path d="M0 0 C1.1875 1.625 1.1875 1.625 2 4 C0.875 7.1875 0.875 7.1875 -1 10 C-3.1875 10.875 -3.1875 10.875 -5 11 C-4.360625 9.9275 -3.72125 8.855 -3.0625 7.75 C-1.59398727 5.19177818 -0.47145458 2.94659114 0 0 Z " fill="#FCBC54" transform="translate(91,57)"/>
<path d="M0 0 C0.99 0.33 1.98 0.66 3 1 C-1.75 6.75 -1.75 6.75 -4 9 C-4.25 6.75 -4.25 6.75 -4 4 C-2 1.6875 -2 1.6875 0 0 Z " fill="#EFA733" transform="translate(114,90)"/>
<path d="M0 0 C-3.68734758 2.45823172 -6.69699971 3.01242616 -11 4 C-10.67 3.01 -10.34 2.02 -10 1 C-6.76421296 -0.31828361 -3.44785988 -0.07836045 0 0 Z " fill="#EF9A37" transform="translate(140,80)"/>
<path d="M0 0 C3.3 0.33 6.6 0.66 10 1 C10 1.33 10 1.66 10 2 C8.35 2 6.7 2 5 2 C4.67 2.66 4.34 3.32 4 4 C2.68 3.67 1.36 3.34 0 3 C0 2.01 0 1.02 0 0 Z " fill="#FEB92E" transform="translate(37,40)"/>
<path d="M0 0 C0.33 0 0.66 0 1 0 C1.75 3.25 1.75 3.25 2 7 C0.0625 9.4375 0.0625 9.4375 -2 11 C-2.99 10.67 -3.98 10.34 -5 10 C-4.360625 9.46375 -3.72125 8.9275 -3.0625 8.375 C-0.61470596 5.55632807 -0.33285388 3.66139268 0 0 Z " fill="#FFE255" transform="translate(27,30)"/>
<path d="M0 0 C0.66 0.66 1.32 1.32 2 2 C1.67 2.66 1.34 3.32 1 4 C-1.97 3.67 -4.94 3.34 -8 3 C-8 2.67 -8 2.34 -8 2 C-6.865625 1.855625 -5.73125 1.71125 -4.5625 1.5625 C-1.19222799 1.38828522 -1.19222799 1.38828522 0 0 Z " fill="#FBA250" transform="translate(36,120)"/>
<path d="M0 0 C1.32 0 2.64 0 4 0 C3 2 2 4 1 6 C0.34 6 -0.32 6 -1 6 C-0.67 4.02 -0.34 2.04 0 0 Z " fill="#F7C667" transform="translate(34,46)"/>
</svg>
