<svg width="30" height="30" viewBox="0 0 30 30" fill="none" xmlns="http://www.w3.org/2000/svg"> <g clip-path="url(#clip0_1989_58999)"> <mask id="mask0_1989_58999" style="mask-type:luminance" maskUnits="userSpaceOnUse" x="3" y="3" width="21" height="25"> <path d="M5.26098 3.74127C4.02435 3.74127 3.0127 4.75309 3.0127 5.98963V25.6441C3.0127 26.8808 4.02435 27.8926 5.26098 27.8926H21.1367C22.3733 27.8926 23.385 26.8808 23.385 25.6441V9.30494C23.385 8.81748 23.1788 8.35272 22.8173 8.02583L18.5729 4.18694C18.2559 3.90007 17.8434 3.74127 17.4159 3.74127H5.26098Z" fill="white"/> </mask> <g mask="url(#mask0_1989_58999)"> <path d="M17.4159 3.74136H5.26089C4.02442 3.74136 3.0127 4.75308 3.0127 5.98972V25.6442C3.0127 26.8809 4.02442 27.8926 5.26089 27.8926H21.1367C22.3733 27.8926 23.385 26.8809 23.385 25.6442V9.30502C23.385 8.81756 23.1788 8.35281 22.8172 8.02584L18.5729 4.18694C18.2558 3.90016 17.8434 3.74136 17.4159 3.74136Z" fill="#E7E7E8"/> <mask id="mask1_1989_58999" style="mask-type:luminance" maskUnits="userSpaceOnUse" x="18" y="7" width="6" height="6"> <path d="M18.4663 7.73056H23.384V12.0176H18.4663V7.73056Z" fill="white"/> </mask> <g mask="url(#mask1_1989_58999)"> <g opacity="0.0700073"> <path d="M18.4668 8.64521L23.3845 12.0176V7.73124L18.4668 8.64521Z" fill="black"/> </g> </g> <path d="M17.7168 3.41176L24.1654 9.24414H20.017C18.7466 9.24414 17.7168 8.21435 17.7168 6.94403V6.82085V3.41176Z" fill="#D2D3D4"/> <mask id="mask2_1989_58999" style="mask-type:luminance" maskUnits="userSpaceOnUse" x="3" y="4" width="5" height="4"> <path d="M3.76758 4.49607H7.20783V7.125H3.76758V4.49607Z" fill="white"/> </mask> <g mask="url(#mask2_1989_58999)"> <g opacity="0.610001"> <path d="M4.16827 7.11557C3.89457 7.05682 3.72015 6.78751 3.779 6.51355C4.07397 5.13889 5.43234 4.26038 6.80717 4.55535C7.08087 4.61411 7.25521 4.88342 7.19645 5.15738C7.13769 5.43133 6.86813 5.60533 6.59443 5.54665C5.76632 5.36894 4.94792 5.89811 4.77021 6.7263C4.71154 7.00025 4.44197 7.17425 4.16827 7.11557Z" fill="white"/> </g> </g> <mask id="mask3_1989_58999" style="mask-type:luminance" maskUnits="userSpaceOnUse" x="-3" y="-3" width="19" height="20"> <path d="M-2.99463 -2.36219H15.809V16.4414H-2.99463V-2.36219Z" fill="white"/> </mask> <g mask="url(#mask3_1989_58999)"> <g opacity="0.649994"> <path d="M15.809 7.03791C15.809 12.2303 11.5999 16.4395 6.40749 16.4395C1.21512 16.4395 -2.99414 12.2303 -2.99414 7.03791C-2.99414 1.84554 1.21512 -2.36373 6.40749 -2.36373C11.5999 -2.36373 15.809 1.84554 15.809 7.03791Z" fill="white"/> </g> </g> </g> <mask id="mask4_1989_58999" style="mask-type:luminance" maskUnits="userSpaceOnUse" x="-253" y="-195" width="304" height="391"> <path d="M-252.423 -194.919H50.6611V195.881H-252.423V-194.919Z" fill="white"/> </mask> <g mask="url(#mask4_1989_58999)"> <mask id="mask5_1989_58999" style="mask-type:luminance" maskUnits="userSpaceOnUse" x="5" y="12" width="16" height="11"> <path d="M5.74268 12.0206H20.5058V22.1699H5.74268V12.0206Z" fill="white"/> </mask> <g mask="url(#mask5_1989_58999)"> <g opacity="0.270004"> <path d="M19.7223 13.6699H6.52572C6.09474 13.6699 5.74219 13.3174 5.74219 12.8865V12.8056C5.74219 12.3746 6.09474 12.0221 6.52572 12.0221H19.7223C20.1532 12.0221 20.5056 12.3746 20.5056 12.8056V12.8865C20.5056 13.3174 20.1532 13.6699 19.7223 13.6699Z" fill="#323139"/> <path d="M19.7223 17.9199H6.52572C6.09474 17.9199 5.74219 17.5674 5.74219 17.1366V17.0556C5.74219 16.6247 6.09474 16.2721 6.52572 16.2721H19.7223C20.1532 16.2721 20.5056 16.6247 20.5056 17.0556V17.1366C20.5056 17.5674 20.1532 17.9199 19.7223 17.9199Z" fill="#323139"/> <path d="M19.7223 22.1699H6.52572C6.09474 22.1699 5.74219 21.8174 5.74219 21.3866V21.3056C5.74219 20.8747 6.09474 20.5221 6.52572 20.5221H19.7223C20.1532 20.5221 20.5056 20.8747 20.5056 21.3056V21.3866C20.5056 21.8174 20.1532 22.1699 19.7223 22.1699Z" fill="#323139"/> </g> </g> </g> <mask id="mask6_1989_58999" style="mask-type:luminance" maskUnits="userSpaceOnUse" x="7" y="1" width="21" height="26"> <path d="M9.75325 1.87036C8.5167 1.87036 7.50488 2.88207 7.50488 4.11871V23.7732C7.50488 25.0098 8.5167 26.0215 9.75325 26.0215H25.6291C26.8656 26.0215 27.8773 25.0098 27.8773 23.7732V7.43401C27.8773 6.94646 27.6711 6.48181 27.3096 6.15476L23.0651 2.31593C22.7482 2.02914 22.3358 1.87036 21.9081 1.87036H9.75325Z" fill="white"/> </mask> <g mask="url(#mask6_1989_58999)"> <path d="M21.9076 1.87222H9.75267C8.51612 1.87222 7.50439 2.88394 7.50439 4.12058V23.7751C7.50439 25.0117 8.51612 26.0234 9.75267 26.0234H25.6284C26.865 26.0234 27.8767 25.0117 27.8767 23.7751V7.43588C27.8767 6.94842 27.6705 6.48367 27.3089 6.1567L23.0646 2.3178C22.7475 2.03102 22.3351 1.87222 21.9076 1.87222Z" fill="#F2F2F2"/> <mask id="mask7_1989_58999" style="mask-type:luminance" maskUnits="userSpaceOnUse" x="22" y="5" width="6" height="6"> <path d="M22.9585 5.86813H27.8762V10.1543H22.9585V5.86813Z" fill="white"/> </mask> <g mask="url(#mask7_1989_58999)"> <g opacity="0.0700073"> <path d="M22.9585 6.78379L27.8762 10.1562V5.86983L22.9585 6.78379Z" fill="black"/> </g> </g> <path d="M22.209 1.54262L28.6576 7.375H24.5092C23.2388 7.375 22.209 6.3452 22.209 5.07489V4.95171V1.54262Z" fill="#E7E7E8"/> <mask id="mask8_1989_58999" style="mask-type:luminance" maskUnits="userSpaceOnUse" x="8" y="2" width="4" height="4"> <path d="M8.25977 2.61801H11.7V5.24609H8.25977V2.61801Z" fill="white"/> </mask> <g mask="url(#mask8_1989_58999)"> <g opacity="0.610001"> <path d="M8.66046 5.24057C8.38676 5.18182 8.21234 4.91251 8.27118 4.63855C8.56616 3.26389 9.92453 2.38538 11.2994 2.68035C11.5731 2.73911 11.7474 3.00842 11.6886 3.28238C11.6299 3.55633 11.3603 3.73033 11.0866 3.67165C10.2585 3.49394 9.44011 4.02311 9.26248 4.8513C9.20372 5.12525 8.93416 5.29925 8.66046 5.24057Z" fill="white"/> </g> </g> <mask id="mask9_1989_58999" style="mask-type:luminance" maskUnits="userSpaceOnUse" x="1" y="-5" width="20" height="20"> <path d="M1.49805 -4.22547H20.3008V14.5781H1.49805V-4.22547Z" fill="white"/> </mask> <g mask="url(#mask9_1989_58999)"> <g opacity="0.639999"> <path d="M20.3007 5.17658C20.3007 10.3689 16.0916 14.5781 10.8992 14.5781C5.70682 14.5781 1.49756 10.3689 1.49756 5.17658C1.49756 -0.0157928 5.70682 -4.22505 10.8992 -4.22505C16.0916 -4.22505 20.3007 -0.0157928 20.3007 5.17658Z" fill="white"/> </g> </g> </g> <mask id="mask10_1989_58999" style="mask-type:luminance" maskUnits="userSpaceOnUse" x="10" y="10" width="15" height="11"> <path d="M10.2334 10.1408H24.9974V20.291H10.2334V10.1408Z" fill="white"/> </mask> <g mask="url(#mask10_1989_58999)"> <g opacity="0.520004"> <path d="M24.2134 11.791H11.0168C10.5859 11.791 10.2334 11.4385 10.2334 11.0076V10.9267C10.2334 10.4957 10.5859 10.1432 11.0168 10.1432H24.2134C24.6443 10.1432 24.9968 10.4957 24.9968 10.9267V11.0076C24.9968 11.4385 24.6443 11.791 24.2134 11.791Z" fill="black"/> <path d="M24.2134 16.041H11.0168C10.5859 16.041 10.2334 15.6885 10.2334 15.2577V15.1768C10.2334 14.7458 10.5859 14.3932 11.0168 14.3932H24.2134C24.6443 14.3932 24.9968 14.7458 24.9968 15.1768V15.2577C24.9968 15.6885 24.6443 16.041 24.2134 16.041Z" fill="black"/> <path d="M24.2134 20.291H11.0168C10.5859 20.291 10.2334 19.9385 10.2334 19.5077V19.4267C10.2334 18.9958 10.5859 18.6432 11.0168 18.6432H24.2134C24.6443 18.6432 24.9968 18.9958 24.9968 19.4267V19.5077C24.9968 19.9385 24.6443 20.291 24.2134 20.291Z" fill="black"/> </g> </g> </g> <defs> <clipPath id="clip0_1989_58999"> <rect width="30" height="30" fill="white"/> </clipPath> </defs> </svg>