<svg width="40" height="40" viewBox="0 0 40 40" fill="none" xmlns="http://www.w3.org/2000/svg">
<path d="M36.6665 21.6665C36.2245 21.6665 35.8006 21.8421 35.488 22.1547C35.1754 22.4672 34.9998 22.8911 34.9998 23.3332V30.3548C34.9985 31.5864 34.5087 32.7671 33.6379 33.6379C32.7671 34.5087 31.5864 34.9985 30.3548 34.9998H9.64484C8.41331 34.9985 7.23261 34.5087 6.36179 33.6379C5.49097 32.7671 5.00116 31.5864 4.99984 30.3548V23.3332C4.99984 22.8911 4.82424 22.4672 4.51168 22.1547C4.19912 21.8421 3.7752 21.6665 3.33317 21.6665C2.89114 21.6665 2.46722 21.8421 2.15466 22.1547C1.8421 22.4672 1.6665 22.8911 1.6665 23.3332V30.3548C1.66871 32.4701 2.50999 34.4982 4.00574 35.9939C5.50149 37.4897 7.52953 38.331 9.64484 38.3332H30.3548C32.4701 38.331 34.4982 37.4897 35.9939 35.9939C37.4897 34.4982 38.331 32.4701 38.3332 30.3548V23.3332C38.3332 22.8911 38.1576 22.4672 37.845 22.1547C37.5325 21.8421 37.1085 21.6665 36.6665 21.6665Z" fill="black"/>
<path d="M11.1785 14.5116L18.3335 7.35664V28.3333C18.3335 28.7753 18.5091 29.1993 18.8217 29.5118C19.1342 29.8244 19.5582 30 20.0002 30C20.4422 30 20.8661 29.8244 21.1787 29.5118C21.4913 29.1993 21.6669 28.7753 21.6669 28.3333V7.35664L28.8219 14.5116C29.1362 14.8152 29.5572 14.9832 29.9942 14.9794C30.4312 14.9756 30.8492 14.8003 31.1582 14.4913C31.4672 14.1823 31.6425 13.7643 31.6463 13.3273C31.6501 12.8903 31.4821 12.4693 31.1785 12.155L21.1785 2.15497C20.866 1.84252 20.4421 1.66699 20.0002 1.66699C19.5582 1.66699 19.1344 1.84252 18.8219 2.15497L8.82186 12.155C8.51826 12.4693 8.35027 12.8903 8.35407 13.3273C8.35786 13.7643 8.53315 14.1823 8.84216 14.4913C9.15117 14.8003 9.56919 14.9756 10.0062 14.9794C10.4432 14.9832 10.8642 14.8152 11.1785 14.5116Z" fill="black"/>
</svg>
