<svg width="24" height="24" viewBox="0 0 24 24" fill="none" xmlns="http://www.w3.org/2000/svg">
<path d="M12 2C13.1 2 14 2.9 14 4C14 5.1 13.1 6 12 6C10.9 6 10 5.1 10 4C10 2.9 10.9 2 12 2ZM21 9V7L15 6.5C14.8 6.1 14.6 5.7 14.3 5.4L15.84 1.6C15.54 1.39 15.23 1.21 14.9 1.06L12.58 4.26C12.39 4.24 12.2 4.24 12 4.24S11.61 4.24 11.42 4.26L9.1 1.06C8.77 1.21 8.46 1.39 8.16 1.6L9.7 5.4C9.4 5.7 9.2 6.1 9 6.5L3 7V9L9 9.5C9.2 9.9 9.4 10.3 9.7 10.6L8.16 14.4C8.46 14.61 8.77 14.79 9.1 14.94L11.42 11.74C11.61 11.76 11.8 11.76 12 11.76S12.39 11.76 12.58 11.74L14.9 14.94C15.23 14.79 15.54 14.61 15.84 14.4L14.3 10.6C14.6 10.3 14.8 9.9 15 9.5L21 9Z" fill="currentColor"/>
</svg>
