<svg width="16" height="16" viewBox="0 0 16 16" fill="none" xmlns="http://www.w3.org/2000/svg">
<g clip-path="url(#clip0_3_1549)">
<path fill-rule="evenodd" clip-rule="evenodd" d="M7.99345 0.285647C8.73558 0.286547 9.45502 0.561944 10.0855 1.0703C11.9092 2.54067 13.497 4.13296 14.964 5.96224C15.96 7.20412 15.9688 8.79905 14.9628 10.044C13.4782 11.881 11.8698 13.4892 10.0324 14.9739C8.80554 15.9652 7.21243 15.9564 5.98867 14.9751C4.12926 13.4843 2.51487 11.869 1.02478 10.0085C0.0434205 8.78328 0.0346709 7.18922 1.02612 5.96086C2.49528 4.14063 4.08566 2.54486 5.89914 1.07163C6.53047 0.55875 7.2509 0.284745 7.99345 0.285647ZM7.99993 3.62953C8.47331 3.62953 8.85707 4.01329 8.85707 4.48667V8.1892C8.85707 8.66258 8.47331 9.04634 7.99993 9.04634C7.52655 9.04634 7.14279 8.66258 7.14279 8.1892V4.48667C7.14279 4.01329 7.52655 3.62953 7.99993 3.62953ZM7.99993 9.98556C8.47331 9.98556 8.85707 10.3693 8.85707 10.8427V11.5131C8.85707 11.9864 8.47331 12.3702 7.99993 12.3702C7.52655 12.3702 7.14279 11.9864 7.14279 11.5131V10.8427C7.14279 10.3693 7.52655 9.98556 7.99993 9.98556Z" fill="url(#paint0_linear_3_1549)"/>
</g>
<defs>
<linearGradient id="paint0_linear_3_1549" x1="17.0514" y1="18.9816" x2="-3.76007" y2="4.19879" gradientUnits="userSpaceOnUse">
<stop stop-color="#FFD600"/>
<stop offset="1" stop-color="#FF007A"/>
</linearGradient>
<clipPath id="clip0_3_1549">
<rect width="16" height="16" fill="white"/>
</clipPath>
</defs>
</svg>
